<svg width="20" height="20" viewBox="0 0 20 20" fill="none" xmlns="http://www.w3.org/2000/svg">
<g clip-path="url(#clip0_2_492)">
<path d="M19.4442 9.96734C19.4442 4.71859 15.2155 0.463867 9.99979 0.463867C4.78173 0.465048 0.552979 4.71859 0.552979 9.96852C0.552979 14.7108 4.00729 18.6421 8.52173 19.3551V12.7145H6.1252V9.96852H8.52409V7.87304C8.52409 5.49186 9.93486 4.17672 12.0917 4.17672C13.1259 4.17672 14.2061 4.36206 14.2061 4.36206V6.69956H13.0149C11.8426 6.69956 11.4767 7.43269 11.4767 8.1847V9.96734H14.0951L13.6772 12.7133H11.4755V19.3539C15.9899 18.6409 19.4442 14.7096 19.4442 9.96734Z" fill="black"/>
</g>
<defs>
<clipPath id="clip0_2_492">
<rect width="18.8889" height="18.8889" fill="white" transform="translate(0.555542 0.465332)"/>
</clipPath>
</defs>
</svg>
