<svg width="20" height="20" viewBox="0 0 20 20" fill="none" xmlns="http://www.w3.org/2000/svg">
<g clip-path="url(#clip0_2_494)">
<path d="M19.1295 8.20755C19.2396 8.84146 19.2945 9.48374 19.2936 10.1271C19.2936 13.0006 18.2665 15.4302 16.4791 17.0747H16.4815C14.9184 18.5185 12.7698 19.3544 10.2222 19.3544C7.71733 19.3544 5.3151 18.3593 3.54393 16.5882C1.77275 14.817 0.77771 12.4147 0.77771 9.90992C0.77771 7.40509 1.77275 5.00286 3.54393 3.23168C5.3151 1.4605 7.71733 0.465467 10.2222 0.465467C12.5667 0.438009 14.8309 1.31881 16.5405 2.92338L13.8441 5.61977C12.8694 4.69065 11.5686 4.18185 10.2222 4.20311C7.75834 4.20311 5.66521 5.86533 4.9191 8.10366C4.5235 9.27655 4.5235 10.5468 4.9191 11.7197H4.92264C5.6723 13.9545 7.76188 15.6167 10.2257 15.6167C11.4983 15.6167 12.5915 15.2909 13.4392 14.7148H13.4356C13.9278 14.3887 14.3488 13.9663 14.6733 13.4731C14.9977 12.9798 15.2189 12.4259 15.3233 11.8448H10.2222V8.20873L19.1295 8.20755Z" fill="black"/>
</g>
<defs>
<clipPath id="clip0_2_494">
<rect width="18.8889" height="18.8889" fill="white" transform="translate(0.77771 0.465332)"/>
</clipPath>
</defs>
</svg>
