<svg width="19" height="20" viewBox="0 0 19 20" fill="none" xmlns="http://www.w3.org/2000/svg">
<g clip-path="url(#clip0_2_488)">
<path d="M9.55553 0.465332C6.99254 0.465332 6.67025 0.477138 5.66324 0.521999C4.65622 0.569221 3.97032 0.727415 3.36942 0.961166C2.73882 1.19766 2.16778 1.56962 1.69657 2.05082C1.21537 2.52203 0.843413 3.09307 0.606917 3.72367C0.373167 4.32339 0.213792 5.01047 0.167751 6.01394C0.12289 7.02332 0.111084 7.34443 0.111084 9.91096C0.111084 12.4751 0.12289 12.7962 0.167751 13.8033C0.214973 14.8091 0.373167 15.495 0.606917 16.0959C0.848931 16.7169 1.17122 17.2434 1.69657 17.7687C2.22074 18.2941 2.74727 18.6176 3.36824 18.8584C3.97032 19.0921 4.65504 19.2515 5.66088 19.2976C6.66907 19.3424 6.99018 19.3542 9.55553 19.3542C12.1209 19.3542 12.4408 19.3424 13.449 19.2976C14.4537 19.2503 15.1419 19.0921 15.7428 18.8584C16.373 18.6217 16.9436 18.2498 17.4145 17.7687C17.9398 17.2434 18.2621 16.7169 18.5041 16.0959C18.7367 15.495 18.8961 14.8091 18.9433 13.8033C18.9882 12.7962 19 12.4751 19 9.90978C19 7.34443 18.9882 7.02332 18.9433 6.01513C18.8961 5.01047 18.7367 4.32339 18.5041 3.72367C18.2677 3.09307 17.8957 2.52203 17.4145 2.05082C16.9433 1.56962 16.3722 1.19766 15.7416 0.961166C15.1396 0.727415 14.4525 0.56804 13.4478 0.521999C12.4396 0.477138 12.1197 0.465332 9.55317 0.465332H9.55553ZM8.70907 2.16769H9.55671C12.0784 2.16769 12.3771 2.17596 13.3723 2.222C14.2931 2.26332 14.7937 2.41797 15.1266 2.54665C15.5669 2.71783 15.8821 2.92325 16.2127 3.25381C16.5432 3.58436 16.7475 3.89839 16.9187 4.33992C17.0485 4.67165 17.202 5.17221 17.2433 6.09304C17.2894 7.08825 17.2988 7.38693 17.2988 9.90742C17.2988 12.4279 17.2894 12.7278 17.2433 13.723C17.202 14.6438 17.0473 15.1432 16.9187 15.4761C16.7662 15.8856 16.5246 16.2562 16.2115 16.561C15.8809 16.8916 15.5669 17.0958 15.1254 17.267C14.7948 17.3969 14.2943 17.5503 13.3723 17.5928C12.3771 17.6377 12.0784 17.6483 9.55671 17.6483C7.03505 17.6483 6.73518 17.6377 5.73997 17.5928C4.81914 17.5503 4.31977 17.3969 3.98685 17.267C3.577 17.115 3.20603 16.8739 2.90074 16.561C2.58703 16.256 2.34508 15.885 2.1924 15.4749C2.06372 15.1432 1.90907 14.6426 1.86775 13.7218C1.82289 12.7266 1.81345 12.4279 1.81345 9.90506C1.81345 7.38221 1.82289 7.08589 1.86775 6.09068C1.91025 5.16985 2.06372 4.66929 2.19358 4.33637C2.36477 3.89603 2.57018 3.58082 2.90074 3.25026C3.23129 2.91971 3.54532 2.71547 3.98685 2.54429C4.31977 2.41443 4.81914 2.26096 5.73997 2.21846C6.61123 2.17832 6.94886 2.16651 8.70907 2.16533V2.16769ZM14.5977 3.73547C14.4489 3.73547 14.3015 3.76479 14.164 3.82174C14.0265 3.8787 13.9015 3.96218 13.7963 4.06742C13.6911 4.17266 13.6076 4.2976 13.5506 4.4351C13.4937 4.5726 13.4644 4.71997 13.4644 4.86881C13.4644 5.01764 13.4937 5.16501 13.5506 5.30251C13.6076 5.44002 13.6911 5.56495 13.7963 5.67019C13.9015 5.77543 14.0265 5.85891 14.164 5.91587C14.3015 5.97282 14.4489 6.00214 14.5977 6.00214C14.8983 6.00214 15.1865 5.88273 15.3991 5.67019C15.6116 5.45765 15.731 5.16938 15.731 4.86881C15.731 4.56823 15.6116 4.27996 15.3991 4.06742C15.1865 3.85488 14.8983 3.73547 14.5977 3.73547ZM9.55671 5.06006C8.91339 5.05002 8.2745 5.16806 7.67724 5.40731C7.07998 5.64655 6.53628 6.00222 6.07779 6.45361C5.61931 6.905 5.2552 7.44309 5.00666 8.03654C4.75813 8.63 4.63013 9.26697 4.63013 9.91037C4.63013 10.5538 4.75813 11.1907 5.00666 11.7842C5.2552 12.3777 5.61931 12.9157 6.07779 13.3671C6.53628 13.8185 7.07998 14.1742 7.67724 14.4134C8.2745 14.6527 8.91339 14.7707 9.55671 14.7607C10.83 14.7408 12.0444 14.2211 12.9378 13.3136C13.8312 12.4062 14.3319 11.1838 14.3319 9.91037C14.3319 8.63694 13.8312 7.41457 12.9378 6.50712C12.0444 5.59967 10.83 5.07992 9.55671 5.06006ZM9.55671 6.76124C9.97019 6.76124 10.3796 6.84268 10.7616 7.00091C11.1436 7.15913 11.4907 7.39105 11.7831 7.68342C12.0754 7.97579 12.3074 8.32289 12.4656 8.70488C12.6238 9.08688 12.7053 9.49631 12.7053 9.90978C12.7053 10.3233 12.6238 10.7327 12.4656 11.1147C12.3074 11.4967 12.0754 11.8438 11.7831 12.1361C11.4907 12.4285 11.1436 12.6604 10.7616 12.8187C10.3796 12.9769 9.97019 13.0583 9.55671 13.0583C8.72167 13.0583 7.92082 12.7266 7.33036 12.1361C6.73989 11.5457 6.40817 10.7448 6.40817 9.90978C6.40817 9.07473 6.73989 8.27389 7.33036 7.68342C7.92082 7.09296 8.72167 6.76124 9.55671 6.76124Z" fill="black"/>
</g>
<defs>
<clipPath id="clip0_2_488">
<rect width="18.8889" height="18.8889" fill="white" transform="translate(0.111084 0.465332)"/>
</clipPath>
</defs>
</svg>
