<svg width="20" height="20" viewBox="0 0 20 20" fill="none" xmlns="http://www.w3.org/2000/svg">
<g clip-path="url(#clip0_2_486)">
<path d="M10.9584 0.465332H13.2959C13.4659 1.30943 13.9334 2.37429 14.7539 3.43089C15.5566 4.46624 16.6215 5.18756 18.0417 5.18756V7.54867C15.9722 7.54867 14.4174 6.5877 13.3195 5.38943V13.4514C13.3195 14.6189 12.9733 15.7601 12.3247 16.7309C11.6761 17.7016 10.7542 18.4581 9.6756 18.9049C8.597 19.3517 7.41015 19.4686 6.26512 19.2408C5.1201 19.0131 4.06832 18.4509 3.2428 17.6253C2.41728 16.7998 1.8551 15.7481 1.62734 14.603C1.39958 13.458 1.51647 12.2711 1.96324 11.1926C2.41001 10.114 3.16658 9.19207 4.13729 8.54347C5.108 7.89486 6.24924 7.54867 7.4167 7.54867V9.90978C6.71622 9.90978 6.03148 10.1175 5.44905 10.5067C4.86663 10.8958 4.41268 11.449 4.14462 12.0961C3.87656 12.7433 3.80643 13.4554 3.94308 14.1424C4.07974 14.8294 4.41705 15.4605 4.91236 15.9558C5.40767 16.4511 6.03874 16.7884 6.72575 16.9251C7.41277 17.0617 8.12488 16.9916 8.77204 16.7235C9.41919 16.4555 9.97232 16.0015 10.3615 15.4191C10.7507 14.8367 10.9584 14.1519 10.9584 13.4514V0.465332Z" fill="black"/>
</g>
<defs>
<clipPath id="clip0_2_486">
<rect width="18.8889" height="18.8889" fill="white" transform="translate(0.333252 0.465332)"/>
</clipPath>
</defs>
</svg>
